# xmcd
#
# Track frame offsets: 
#        150
#        17707
#        42162
#        60563
#        85532
#        116269
#        131586
#        149475
#
# Disc length: 2232 seconds
#
# Revision: 0
# Processed by: cddbd v1.5.2PL0 Copyright (c) Steve Scherf et al.
# Submitted via: ExactAudioCopyFreeDBPlugin 1.0
#
DISCID=6108b608
DTITLE=Hunter Hayes - Live
DYEAR=2012
DGENRE=Country
TTITLE0=Love Makes Me
TTITLE1=Storm Warning
TTITLE2=Wanted
TTITLE3=Somebody's Heartbreak
TTITLE4=Rainy Season
TTITLE5=Everybody's Got Somebody But Me
TTITLE6=More Than I Should
TTITLE7=Cry With You
EXTD=
EXTT0=
EXTT1=
EXTT2=
EXTT3=
EXTT4=
EXTT5=
EXTT6=
EXTT7=
PLAYORDER=
